PathFileType	4	(X/Y/Z)	output.trc
DataRate	CameraRate	NumFrames	NumMarkers	Units	OrigDataRate	OrigDataStartFrame	OrigNumFrames
200	200	4	68	mm	200	148	295
Frame#	Time			LASI			RASI			RSACR			LSACR			USACR			LBAR			RBAR			RHEE			RMT1			RMT5			RMT2			LHEE			LMT1			LMT5			LMT2			LMMAL			LMFC			LLFC			LLMAL			LTIB4			LTIB2			LTIB3			LTIB1			RMMAL			RMFC			RLFC			RLMAL			RTIB1			RTIB2			RTIB3			RTHI1			RTHI4			RTHI3			RTHI2			LTHI1			LTHI4			LTHI3			LTHI2			FHD			LBHD			RBHD			C7			T10			CLAV			LSHO			RSHO			LRAD			LUL			LRFIN			RRAD			RUL			RUFIN			RLEP			RMEP			LLEP			LMEP			LDUPA			LMUPA			LUUPA			RDUPA			RUUPA			RMUPA			LHJC			RHJC			LKJC			RKJC			LAJC			RAJC
		X1	Y1	Z1	X2	Y2	Z2	X3	Y3	Z3	X4	Y4	Z4	X5	Y5	Z5	X6	Y6	Z6	X7	Y7	Z7	X8	Y8	Z8	X9	Y9	Z9	X10	Y10	Z10	X11	Y11	Z11	X12	Y12	Z12	X13	Y13	Z13	X14	Y14	Z14	X15	Y15	Z15	X16	Y16	Z16	X17	Y17	Z17	X18	Y18	Z18	X19	Y19	Z19	X20	Y20	Z20	X21	Y21	Z21	X22	Y22	Z22	X23	Y23	Z23	X24	Y24	Z24	X25	Y25	Z25	X26	Y26	Z26	X27	Y27	Z27	X28	Y28	Z28	X29	Y29	Z29	X30	Y30	Z30	X31	Y31	Z31	X32	Y32	Z32	X33	Y33	Z33	X34	Y34	Z34	X35	Y35	Z35	X36	Y36	Z36	X37	Y37	Z37	X38	Y38	Z38	X39	Y39	Z39	X40	Y40	Z40	X41	Y41	Z41	X42	Y42	Z42	X43	Y43	Z43	X44	Y44	Z44	X45	Y45	Z45	X46	Y46	Z46	X47	Y47	Z47	X48	Y48	Z48	X49	Y49	Z49	X50	Y50	Z50	X51	Y51	Z51	X52	Y52	Z52	X53	Y53	Z53	X54	Y54	Z54	X55	Y55	Z55	X56	Y56	Z56	X57	Y57	Z57	X58	Y58	Z58	X59	Y59	Z59	X60	Y60	Z60	X61	Y61	Z61	X62	Y62	Z62	X63	Y63	Z63	X64	Y64	Z64	X65	Y65	Z65	X66	Y66	Z66	X67	Y67	Z67	X68	Y68	Z68
147	0.735000	133.090424	918.147278	-762.000488	128.721252	918.697449	-984.479492	308.489532	950.112610	-912.378784	307.680542	953.357971	-852.470459	296.806152	966.487061	-882.326782	1270.840576	26.299715	346.501068	1226.432617	26.280542	-1876.937622	323.065796	39.833706	-1019.646240	128.166550	43.444263	-1043.313599	165.062424	34.828613	-1113.660034	140.173859	42.694820	-1079.956909	326.251953	45.845589	-745.165588	134.382355	46.328411	-736.456482	169.964600	33.429676	-662.783875	143.160950	45.906181	-698.046143	276.678619	72.975075	-778.712280	232.462601	456.950317	-829.053467	218.932312	453.983032	-721.405823	278.801636	69.146790	-700.998352	290.136475	209.650070	-691.470642	313.699951	271.011414	-691.437073	263.216797	268.154175	-684.438416	301.411713	314.338043	-687.098083	275.166168	68.345795	-994.081665	234.898834	446.536224	-935.292358	220.032959	461.294800	-1041.176392	284.645782	72.258385	-1068.566162	256.750488	319.292542	-1082.666626	307.180573	314.106079	-1077.157837	276.288849	256.189026	-1081.291992	240.879669	783.828003	-1060.012939	242.110275	635.080750	-1064.570068	190.689651	636.971130	-1066.480225	218.347137	697.018738	-1070.036987	237.860962	778.897217	-698.619568	235.839233	646.563843	-695.047119	185.228165	637.441223	-693.370605	199.513199	701.180359	-689.510803	130.564331	1593.184326	-776.148010	241.313477	1576.230591	-787.138306	252.828766	1571.232788	-910.606506	263.034454	1391.216919	-858.245911	284.932831	1007.399231	-877.443909	140.610489	1328.327026	-872.965820	244.749741	1380.939575	-725.408203	236.588333	1396.670044	-987.134888	166.310822	1359.405396	-222.859207	206.922775	1354.831665	-222.576309	153.022766	1338.890259	-130.913223	241.096725	1388.738159	-1500.936523	287.990326	1382.537231	-1500.079590	235.339676	1390.867798	-1591.112915	293.230560	1329.415039	-1271.569214	254.920914	1295.941895	-1272.040161	221.588882	1300.821411	-454.274048	180.647858	1278.523926	-466.898651	237.800934	1354.342651	-506.384247	201.865341	1372.005493	-536.921204	238.868118	1362.499023	-585.667236	266.290558	1381.937012	-1205.985474	256.989197	1383.655762	-1144.312744	216.013474	1385.181519	-1212.596680	226.210648	883.467468	-771.030151	226.030151	884.212708	-985.623718	225.697449	455.466675	-775.229614	227.465897	453.915527	-988.234375	277.740112	71.060928	-739.855347	279.905975	70.302094	-1031.323975
148	0.740000	133.108658	918.146484	-761.988220	128.730911	918.703308	-984.480347	308.507538	950.118713	-912.382751	307.695343	953.355286	-852.467163	296.808319	966.492065	-882.327148	1270.836304	26.308809	346.551300	1226.438354	26.288107	-1876.951050	323.057098	39.835003	-1019.647522	128.166534	43.444164	-1043.311401	165.066696	34.820934	-1113.654053	140.167358	42.697754	-1079.961914	326.248169	45.842911	-745.167603	134.386780	46.323071	-736.454224	170.011032	33.381588	-662.798950	143.161606	45.908619	-698.039551	276.670074	72.972198	-778.714111	232.472961	456.952148	-829.045837	218.928574	453.975983	-721.401123	278.798767	69.146584	-700.996582	290.140320	209.648361	-691.477051	313.657990	271.258942	-691.257263	263.201935	268.156952	-684.444702	301.382141	314.364410	-687.100220	275.165894	68.345161	-994.073242	234.897461	446.536682	-935.285339	220.041763	461.292999	-1041.171997	284.634644	72.267014	-1068.565918	256.743683	319.282257	-1082.671631	307.177399	314.100067	-1077.156006	276.293060	256.188080	-1081.289673	240.896545	783.825562	-1060.005615	241.956787	635.050781	-1064.795898	190.698547	636.959290	-1066.451172	218.234024	697.134521	-1070.087891	237.881439	778.890076	-698.618103	235.868134	646.536194	-695.038696	185.232986	637.440247	-693.373108	199.534607	701.178589	-689.509644	130.554596	1593.196533	-776.161560	241.302322	1576.234253	-787.147461	252.831116	1571.243530	-910.618530	263.049774	1391.211914	-858.240540	284.934814	1007.400940	-877.438538	140.631226	1328.325073	-872.958313	244.774521	1380.947388	-725.409119	236.608643	1396.671753	-987.129456	166.307938	1359.427368	-222.868164	206.932373	1354.867798	-222.579071	153.026550	1338.918335	-130.908875	241.081055	1388.736450	-1500.939697	287.959259	1382.537476	-1500.067627	235.320770	1390.873779	-1591.118042	293.217499	1329.413696	-1271.558228	254.902969	1295.949829	-1272.038574	221.610397	1300.840820	-454.261047	180.668060	1278.536255	-466.887115	237.802628	1354.356567	-506.384979	201.883850	1372.005249	-536.914612	238.838348	1362.676147	-585.642273	266.293030	1381.934570	-1205.981323	256.996002	1383.659668	-1144.302979	216.001999	1385.180786	-1212.582642	226.228485	883.463928	-771.024475	226.044998	884.215881	-985.622925	225.700775	455.464050	-775.223511	227.469604	453.914856	-988.228638	277.734436	71.059387	-739.855347	279.900269	70.306091	-1031.319580
149	0.745000	133.119049	918.158386	-761.983337	128.744690	918.710693	-984.468018	308.516449	950.116882	-912.376526	307.705658	953.357361	-852.463989	296.824493	966.483704	-882.328979	1270.845581	26.305883	346.477570	1226.434082	26.295540	-1876.951538	323.057495	39.835232	-1019.653381	128.168427	43.442169	-1043.301636	165.061539	34.827347	-1113.653809	140.165436	42.696671	-1079.958496	326.246582	45.848476	-745.178772	134.380630	46.333775	-736.453674	169.976608	33.415234	-662.784668	143.164322	45.915157	-698.036255	276.678284	72.967949	-778.714783	232.503754	456.946777	-829.036438	218.948990	453.976715	-721.391052	278.797974	69.148201	-700.991943	290.158112	209.648270	-691.475403	313.729858	271.029327	-691.435669	263.204956	268.149445	-684.448669	301.279724	314.352631	-687.192627	275.162354	68.346222	-994.071716	234.909958	446.539185	-935.289307	220.042068	461.294586	-1041.172241	284.639435	72.267250	-1068.567139	256.753998	319.285217	-1082.668091	307.160248	314.087372	-1077.147827	276.298462	256.182648	-1081.282349	240.890793	783.823975	-1060.016846	241.959015	635.047974	-1064.811523	190.698441	636.990967	-1066.462280	218.357773	697.039734	-1070.033325	237.898087	778.897583	-698.621582	235.881516	646.547180	-695.017517	185.230087	637.450012	-693.368347	199.549438	701.182068	-689.505493	130.550873	1593.193726	-776.160889	241.337769	1576.234497	-787.137878	252.832245	1571.237793	-910.621521	263.047333	1391.215698	-858.239685	284.949951	1007.399902	-877.447021	140.650208	1328.315308	-872.947998	244.796402	1380.950439	-725.398865	236.619675	1396.664062	-987.116150	166.305374	1359.457275	-222.868851	206.941528	1354.886841	-222.573914	153.023331	1338.951660	-130.904358	241.053207	1388.747559	-1500.934326	287.953094	1382.542969	-1500.061157	235.290985	1390.880981	-1591.116577	293.201752	1329.417603	-1271.561646	254.888168	1295.955566	-1272.046509	221.617554	1300.858765	-454.259308	180.684128	1278.551147	-466.882904	237.796448	1354.386963	-506.381775	201.892838	1372.022583	-536.909973	238.825043	1362.690796	-585.634033	266.275513	1381.942505	-1205.988281	256.998413	1383.667725	-1144.299316	215.999771	1385.181030	-1212.578247	226.240936	883.471130	-771.022949	226.050644	884.217163	-985.620483	225.726379	455.461731	-775.213745	227.476013	453.916870	-988.230774	277.738129	71.058075	-739.853394	279.900879	70.306732	-1031.319458
150	0.750000	133.137207	918.161255	-761.972656	128.756744	918.713379	-984.456360	308.530334	950.119934	-912.383301	307.735840	953.353760	-852.466431	296.851807	966.483337	-882.327515	1270.833252	26.297527	346.515442	1226.436768	26.289917	-1876.952881	323.061890	39.840553	-1019.646179	128.151474	43.447655	-1043.307739	165.070007	34.828674	-1113.654907	140.166473	42.698124	-1079.957764	326.250061	45.846001	-745.180237	134.392426	46.325954	-736.457581	169.970993	33.427204	-662.781982	143.164719	45.916634	-698.036011	276.674957	72.975067	-778.717712	232.499207	456.955933	-829.038208	218.963303	453.981415	-721.388794	278.793243	69.151741	-700.994751	290.161194	209.654190	-691.476013	313.645905	271.264404	-691.260315	263.202545	268.152344	-684.433716	301.406921	314.355713	-687.093933	275.166046	68.339821	-994.077576	234.911621	446.533295	-935.285950	220.045517	461.293762	-1041.171143	284.638611	72.265518	-1068.562256	256.747894	319.279449	-1082.661865	307.179199	314.102295	-1077.161133	276.292236	256.186279	-1081.293823	240.901215	783.825134	-1060.012085	241.960831	635.037476	-1064.801758	190.696442	636.971008	-1066.445190	218.352234	697.031860	-1070.028687	237.923691	778.910461	-698.623962	235.880173	646.533264	-695.014832	185.252716	637.439453	-693.364807	199.577423	701.188477	-689.497131	130.560425	1593.191895	-776.150696	241.323853	1576.244263	-787.134766	252.835098	1571.237671	-910.628784	263.056000	1391.213989	-858.243408	284.972137	1007.404297	-877.432007	140.666702	1328.311279	-872.946716	244.811157	1380.946167	-725.394104	236.625595	1396.663086	-987.111450	166.321960	1359.487671	-222.871445	206.953476	1354.910400	-222.570145	153.034760	1338.990845	-130.896500	241.035873	1388.759644	-1500.928101	287.921631	1382.549927	-1500.065552	235.263290	1390.887329	-1591.119751	293.193207	1329.415649	-1271.567261	254.875351	1295.956055	-1272.034790	221.634781	1300.866455	-454.245819	180.700684	1278.556030	-466.879150	237.801636	1354.403076	-506.375305	201.883041	1372.030151	-536.912048	238.949219	1362.400391	-585.597595	266.283905	1381.942017	-1205.984131	256.999542	1383.665527	-1144.302734	216.000793	1385.182007	-1212.560547	226.265579	883.475159	-771.020996	226.062759	884.219482	-985.617249	225.731262	455.468689	-775.213501	227.478577	453.913513	-988.228516	277.734100	71.063400	-739.856201	279.902344	70.302673	-1031.319946
